 <svg id="homepage-icon-1" xmlns="http://www.w3.org/2000/svg" xmlns:xlink="http://www.w3.org/1999/xlink"
                         width="84" height="84" viewBox="0 0 84 84">
                        <defs>
                            <linearGradient id="linear-gradient" x1="0.5" x2="0.5" y2="1" gradientUnits="objectBoundingBox">
                                <stop offset="0" stop-color="#039ca5" />
                                <stop offset="1" stop-color="#fff" />
                            </linearGradient>
                        </defs>
                        <path id="Path_4367" data-name="Path 4367"
                              d="M693.985,957.258v52.882l-27.356,17.118-56.644-31.907V957.258Z"
                              transform="translate(-609.985 -957.258)" opacity="0.1" fill="url(#linear-gradient)" />
                        <g id="Group_3372" data-name="Group 3372" transform="translate(29 20)">
                            <path id="Path_5397" data-name="Path 5397"
                                  d="M-394.09,432.85h30.45a.571.571,0,0,0,.571-.571.571.571,0,0,0-.571-.571h-30.45a.571.571,0,0,0-.571.571A.571.571,0,0,0-394.09,432.85Z"
                                  transform="translate(399.8 -399.208)" fill="#039ca5" />
                            <path id="Path_5398" data-name="Path 5398"
                                  d="M-394.237,426.85h24.614c.229,0,.423-.262.423-.571s-.194-.571-.423-.571h-24.614c-.23,0-.424.261-.424.571S-394.467,426.85-394.237,426.85Z"
                                  transform="translate(399.8 -399.279)" fill="#039ca5" />
                            <path id="Path_5399" data-name="Path 5399"
                                  d="M-394.334,420.85h20.807c.155,0,.327-.235.327-.571s-.172-.571-.327-.571h-20.807c-.155,0-.327.234-.327.571S-394.489,420.85-394.334,420.85Z"
                                  transform="translate(399.8 -399.35)" fill="#039ca5" />
                            <path id="Path_5400" data-name="Path 5400"
                                  d="M-394.334,407.85h20.807c.155,0,.327-.235.327-.571s-.172-.571-.327-.571h-20.807c-.155,0-.327.234-.327.571S-394.489,407.85-394.334,407.85Z"
                                  transform="translate(399.8 -399.587)" fill="#039ca5" />
                            <path id="Path_5401" data-name="Path 5401"
                                  d="M-346.447,443.794a13.2,13.2,0,0,0-10.978-6.891l-.191-.009v-23.8h10.829a.583.583,0,0,0,.562-.594v-6.56a6.31,6.31,0,0,0-6.255-6.349h-41.041a6.006,6.006,0,0,0-6.006,5.992l-.272,50.392a.6.6,0,0,0,.168.42.575.575,0,0,0,.408.173s17.188,0,29.315.005h.119l.057.1a13.219,13.219,0,0,0,7.945,6.381,13.155,13.155,0,0,0,10.11-1.13A13.39,13.39,0,0,0-346.447,443.794Zm-6.073-43.051h.038a5.157,5.157,0,0,1,5.106,5.2v6h-10.24v-5.979A5.278,5.278,0,0,1-352.52,400.742Zm-18.123,54.689c-6.92,0-15.295-.007-21.184-.012l-6.819-.005v-.2l.267-49.629a4.879,4.879,0,0,1,4.855-4.839h37.337l-.376.351a6.64,6.64,0,0,0-2.2,4.863V436.9l-.187.013a13.111,13.111,0,0,0-3.636.789l-.174.065-.079-.17a.593.593,0,0,0-.522-.321h-30.684a.577.577,0,0,0-.575.578.577.577,0,0,0,.575.578h29.856l-.67.378a12.07,12.07,0,0,0-3.936,3.579l-.059.087h-25.19a.577.577,0,0,0-.575.577.577.577,0,0,0,.575.578H-369.6l-.18.306a12.225,12.225,0,0,0-1.317,3.578l-.033.161h-22.919a.577.577,0,0,0-.575.578.577.577,0,0,0,.575.577h22.742l-.022.223a12.062,12.062,0,0,0-.058,1.212,13.166,13.166,0,0,0,.93,4.889l.11.277Zm12.553,7h-.009a12.03,12.03,0,0,1-8.577-3.565,12.133,12.133,0,0,1-3.56-8.616,12.169,12.169,0,0,1,2.14-6.915,12.129,12.129,0,0,1,16.909-3.124,12.113,12.113,0,0,1,5.04,7.839,12.148,12.148,0,0,1-1.955,9.121A12.128,12.128,0,0,1-358.09,462.427Z"
                                  transform="translate(399.8 -399.587)" fill="#039ca5" />
                            <path id="Path_5402" data-name="Path 5402"
                                  d="M-353.6,447.234a.569.569,0,0,0,.168-.4.565.565,0,0,0-.166-.4.565.565,0,0,0-.4-.168h0a.564.564,0,0,0-.4.166l-.147-.136.142.142-5.233,5.232-2.756-2.784a.572.572,0,0,0-.806,0,.574.574,0,0,0,0,.8l3.158,3.177a.538.538,0,0,0,.4.158.505.505,0,0,0,.412-.157Z"
                                  transform="translate(400.13 -398.982)" fill="#f6972f" />
                        </g>
                    </svg>