<svg xmlns="http://www.w3.org/2000/svg" width="23" height="18" viewBox="0 0 23 18">
  <defs>
    <style>
      .cls-1 {
        fill: #fff;
      }
    </style>
  </defs>
  <g id="IMGs" transform="translate(-1 -3)">
    <path id="IMGs-2" data-name="IMGs" class="cls-1" d="M7.27,18a2.923,2.923,0,0,1-2.091-.666,2.64,2.64,0,0,1-.7-2V14.023h-1.7A2.923,2.923,0,0,1,.7,13.356a2.64,2.64,0,0,1-.7-2v-8.7a2.64,2.64,0,0,1,.7-2A2.923,2.923,0,0,1,2.787,0H15.738A2.893,2.893,0,0,1,17.82.671a2.638,2.638,0,0,1,.7,1.993V3.979h1.7a2.893,2.893,0,0,1,2.082.67A2.641,2.641,0,0,1,23,6.641v8.7a2.641,2.641,0,0,1-.7,1.993,2.893,2.893,0,0,1-2.082.67Z" transform="translate(1 3)"/>
  </g>
</svg>
